<?xml version="1.0" encoding="UTF-8" standalone="no"?>
<!DOCTYPE svg PUBLIC "-//W3C//DTD SVG 1.1//EN"
 "http://www.w3.org/Graphics/SVG/1.1/DTD/svg11.dtd">
<!-- Generated by graphviz version 2.44.0 (0)
 -->
<!-- Title: dependency Pages: 1 -->
<svg width="528pt" height="335pt"
 viewBox="0.00 0.00 527.89 335.00" xmlns="http://www.w3.org/2000/svg" xmlns:xlink="http://www.w3.org/1999/xlink">
<g id="graph0" class="graph" transform="scale(1 1) rotate(0) translate(4 331)">
<title>dependency</title>
<polygon fill="white" stroke="transparent" points="-4,4 -4,-331 523.89,-331 523.89,4 -4,4"/>
<!-- payment -->
<g id="node1" class="node">
<title>payment</title>
<ellipse fill="none" stroke="black" cx="204.49" cy="-207" rx="41.69" ry="18"/>
<text text-anchor="middle" x="204.49" y="-203.3" font-family="Times,serif" font-size="14.00">payment</text>
</g>
<!-- payment_service -->
<g id="node2" class="node">
<title>payment_service</title>
<ellipse fill="none" stroke="black" cx="71.49" cy="-105" rx="71.49" ry="18"/>
<text text-anchor="middle" x="71.49" y="-101.3" font-family="Times,serif" font-size="14.00">payment_service</text>
</g>
<!-- payment&#45;&gt;payment_service -->
<g id="edge5" class="edge">
<title>payment&#45;&gt;payment_service</title>
<path fill="none" stroke="black" d="M184.58,-191.03C162.58,-174.48 126.89,-147.65 101.5,-128.56"/>
<polygon fill="black" stroke="black" points="103.41,-125.62 93.31,-122.41 99.2,-131.21 103.41,-125.62"/>
<text text-anchor="middle" x="166.49" y="-152.3" font-family="Times,serif" font-size="14.00">s/a</text>
</g>
<!-- customer -->
<g id="node7" class="node">
<title>customer</title>
<ellipse fill="none" stroke="black" cx="204.49" cy="-105" rx="43.59" ry="18"/>
<text text-anchor="middle" x="204.49" y="-101.3" font-family="Times,serif" font-size="14.00">customer</text>
</g>
<!-- payment&#45;&gt;customer -->
<g id="edge4" class="edge">
<title>payment&#45;&gt;customer</title>
<path fill="none" stroke="black" d="M204.49,-188.58C204.49,-173.38 204.49,-151.07 204.49,-133.46"/>
<polygon fill="black" stroke="black" points="207.99,-133.22 204.49,-123.22 200.99,-133.22 207.99,-133.22"/>
<text text-anchor="middle" x="207.49" y="-152.3" font-family="Times,serif" font-size="14.00">s</text>
</g>
<!-- shipment -->
<g id="node3" class="node">
<title>shipment</title>
<ellipse fill="none" stroke="black" cx="336.49" cy="-207" rx="43.59" ry="18"/>
<text text-anchor="middle" x="336.49" y="-203.3" font-family="Times,serif" font-size="14.00">shipment</text>
</g>
<!-- shipping_service -->
<g id="node4" class="node">
<title>shipping_service</title>
<ellipse fill="none" stroke="black" cx="336.49" cy="-105" rx="70.69" ry="18"/>
<text text-anchor="middle" x="336.49" y="-101.3" font-family="Times,serif" font-size="14.00">shipping_service</text>
</g>
<!-- shipment&#45;&gt;shipping_service -->
<g id="edge8" class="edge">
<title>shipment&#45;&gt;shipping_service</title>
<path fill="none" stroke="black" d="M336.49,-188.58C336.49,-173.38 336.49,-151.07 336.49,-133.46"/>
<polygon fill="black" stroke="black" points="339.99,-133.22 336.49,-123.22 332.99,-133.22 339.99,-133.22"/>
<text text-anchor="middle" x="339.99" y="-152.3" font-family="Times,serif" font-size="14.00">a</text>
</g>
<!-- stock -->
<g id="node6" class="node">
<title>stock</title>
<ellipse fill="none" stroke="black" cx="454.49" cy="-105" rx="29.5" ry="18"/>
<text text-anchor="middle" x="454.49" y="-101.3" font-family="Times,serif" font-size="14.00">stock</text>
</g>
<!-- shipment&#45;&gt;stock -->
<g id="edge7" class="edge">
<title>shipment&#45;&gt;stock</title>
<path fill="none" stroke="black" d="M351.5,-189.99C364.65,-176.33 384.56,-156.5 403.49,-141 410.54,-135.23 418.52,-129.44 426.03,-124.28"/>
<polygon fill="black" stroke="black" points="428.21,-127.03 434.56,-118.55 424.31,-121.22 428.21,-127.03"/>
<text text-anchor="middle" x="446.49" y="-159.8" font-family="Times,serif" font-size="14.00">reservierung: s,</text>
<text text-anchor="middle" x="446.49" y="-144.8" font-family="Times,serif" font-size="14.00"> sonst a</text>
</g>
<!-- shipment&#45;&gt;customer -->
<g id="edge6" class="edge">
<title>shipment&#45;&gt;customer</title>
<path fill="none" stroke="black" d="M316.45,-190.81C294.16,-173.93 257.98,-146.52 232.81,-127.45"/>
<polygon fill="black" stroke="black" points="234.81,-124.58 224.73,-121.33 230.59,-130.16 234.81,-124.58"/>
<text text-anchor="middle" x="293.49" y="-152.3" font-family="Times,serif" font-size="14.00">s</text>
</g>
<!-- order -->
<g id="node5" class="node">
<title>order</title>
<ellipse fill="none" stroke="black" cx="336.49" cy="-309" rx="29.5" ry="18"/>
<text text-anchor="middle" x="336.49" y="-305.3" font-family="Times,serif" font-size="14.00">order</text>
</g>
<!-- order&#45;&gt;payment -->
<g id="edge2" class="edge">
<title>order&#45;&gt;payment</title>
<path fill="none" stroke="black" d="M318.69,-294.51C296.47,-277.68 258.21,-248.69 232.15,-228.96"/>
<polygon fill="black" stroke="black" points="234.24,-226.15 224.16,-222.9 230.02,-231.73 234.24,-226.15"/>
<text text-anchor="middle" x="298.49" y="-254.3" font-family="Times,serif" font-size="14.00">s/a</text>
</g>
<!-- order&#45;&gt;shipment -->
<g id="edge1" class="edge">
<title>order&#45;&gt;shipment</title>
<path fill="none" stroke="black" d="M336.49,-290.58C336.49,-275.38 336.49,-253.07 336.49,-235.46"/>
<polygon fill="black" stroke="black" points="339.99,-235.22 336.49,-225.22 332.99,-235.22 339.99,-235.22"/>
<text text-anchor="middle" x="379.49" y="-261.8" font-family="Times,serif" font-size="14.00">reservierung: s,</text>
<text text-anchor="middle" x="379.49" y="-246.8" font-family="Times,serif" font-size="14.00"> sonst a</text>
</g>
<!-- catalog -->
<g id="node8" class="node">
<title>catalog</title>
<ellipse fill="none" stroke="black" cx="483.49" cy="-18" rx="36.29" ry="18"/>
<text text-anchor="middle" x="483.49" y="-14.3" font-family="Times,serif" font-size="14.00">catalog</text>
</g>
<!-- order&#45;&gt;catalog -->
<g id="edge3" class="edge">
<title>order&#45;&gt;catalog</title>
<path fill="none" stroke="black" d="M363.66,-302.31C382.87,-297.2 408.33,-288.12 426.49,-273 467.45,-238.91 473.35,-221.78 489.49,-171 502.88,-128.9 496.21,-76.92 489.98,-45.95"/>
<polygon fill="black" stroke="black" points="493.35,-44.96 487.83,-35.92 486.5,-46.43 493.35,-44.96"/>
<text text-anchor="middle" x="498.49" y="-152.3" font-family="Times,serif" font-size="14.00">s</text>
</g>
<!-- stock&#45;&gt;catalog -->
<g id="edge9" class="edge">
<title>stock&#45;&gt;catalog</title>
<path fill="none" stroke="black" d="M460.22,-87.21C464.25,-75.41 469.72,-59.38 474.34,-45.82"/>
<polygon fill="black" stroke="black" points="477.76,-46.64 477.68,-36.05 471.14,-44.38 477.76,-46.64"/>
<text text-anchor="middle" x="473.99" y="-57.8" font-family="Times,serif" font-size="14.00">a</text>
</g>
</g>
</svg>
